# xmcd CD database file
#
# Track frame offsets:
#	150
#	22055
#	39245
#	56605
#	74385
#	92840
#	113785
#	133580
#	149255
#	166800
#	187410
#	208220
#	232010
#	253065
#	275470
#	298600
#
# Disc length: 4358 seconds
#
# Revision: 1
# Processed by: cddbd v1.4PL0 Copyright (c) Steve Scherf et al.
# Submitted via: CDex 1.50beta9
#
DISCID=fb110410
DTITLE=Various Artist - Urban Jazz Decade
DYEAR=2002
DGENRE=Jazz
TTITLE0=Down To The Bone - Touch Of Voodoo
TTITLE1=Mr Gone - Souvenirs
TTITLE2=AKA Project - Souled Down
TTITLE3=New Jazz Hustlers - Slipmat
TTITLE4=Down To The Bone - Righteous Reeds
TTITLE5=Down To The Bone - Rich People, Poor People
TTITLE6=Down To The Bone - Phat City Huster
TTITLE7=Diamond Wookie - Oscar
TTITLE8=The AKA Project - Missing The Tortoise
TTITLE9=Mr Gone - La Pomme
TTITLE10=New Jazz Hustlers - Just Cant Stop
TTITLE11=Mr Gone - I Love Jazz
TTITLE12=Mr Gone - Equation Boogie
TTITLE13=Diamond Wookie - Dance Of The Dibnah
TTITLE14=Down To The Bone - Brooklyn Heights
TTITLE15=Down To The Bone - A Little Touch Of Soul
EXTD=YEAR: 2002
EXTT0=
EXTT1=
EXTT2=
EXTT3=
EXTT4=
EXTT5=
EXTT6=
EXTT7=
EXTT8=
EXTT9=
EXTT10=
EXTT11=
EXTT12=
EXTT13=
EXTT14=
EXTT15=
PLAYORDER=
